<svg width="16" height="16" viewBox="0 0 16 16" fill="none" xmlns="http://www.w3.org/2000/svg">
<path fill-rule="evenodd" clip-rule="evenodd" d="M3.64645 3.64651C3.84171 3.45125 4.15829 3.45125 4.35355 3.64651L8 7.29295L11.6464 3.64651C11.8417 3.45125 12.1583 3.45125 12.3536 3.64651C12.5488 3.84177 12.5488 4.15835 12.3536 4.35361L8.70711 8.00006L12.3535 11.6464C12.5487 11.8417 12.5487 12.1583 12.3535 12.3535C12.1582 12.5488 11.8416 12.5488 11.6464 12.3535L8 8.70717L4.35363 12.3535C4.15837 12.5488 3.84179 12.5488 3.64653 12.3535C3.45127 12.1583 3.45127 11.8417 3.64653 11.6464L7.29289 8.00006L3.64645 4.35361C3.45118 4.15835 3.45118 3.84177 3.64645 3.64651Z" fill="#2C2D2E"/>
</svg>
