<svg width="16" height="16" viewBox="0 0 16 16" fill="none" xmlns="http://www.w3.org/2000/svg">
<path fill-rule="evenodd" clip-rule="evenodd" d="M4.64645 4.64644C4.84171 4.45118 5.15829 4.45119 5.35356 4.64645L8 7.29292L10.6464 4.64645C10.8417 4.45119 11.1583 4.45118 11.3536 4.64644C11.5488 4.84171 11.5488 5.15829 11.3536 5.35355L8.7071 8.00003L11.3535 10.6464C11.5488 10.8417 11.5488 11.1583 11.3535 11.3536C11.1582 11.5488 10.8416 11.5488 10.6464 11.3536L8 8.70714L5.35362 11.3536C5.15835 11.5488 4.84177 11.5488 4.64651 11.3536C4.45125 11.1583 4.45124 10.8417 4.64651 10.6464L7.2929 8.00003L4.64644 5.35355C4.45118 5.15829 4.45119 4.84171 4.64645 4.64644Z" fill="#2C2D2E"/>
</svg>
