<svg width="16" height="16" viewBox="0 0 16 16" fill="none" xmlns="http://www.w3.org/2000/svg">
<path d="M6.5 7C6.22386 7 6 7.22386 6 7.5V9H4.5C4.22386 9 4 9.22386 4 9.5C4 9.77614 4.22386 10 4.5 10H6V11.5C6 11.7761 6.22386 12 6.5 12C6.77614 12 7 11.7761 7 11.5V10H8.5C8.77614 10 9 9.77614 9 9.5C9 9.22386 8.77614 9 8.5 9H7V7.5C7 7.22386 6.77614 7 6.5 7Z" fill="#2C2D2E"/>
<path fill-rule="evenodd" clip-rule="evenodd" d="M6 0C4.34315 0 3 1.34315 3 3C1.34315 3 0 4.34315 0 6V13C0 14.6569 1.34315 16 3 16H10C11.6569 16 13 14.6569 13 13C14.6569 13 16 11.6569 16 10V3C16 1.34315 14.6569 0 13 0H6ZM13 12C14.1046 12 15 11.1046 15 10V3C15 1.89543 14.1046 1 13 1H6C4.89543 1 4 1.89543 4 3H10C11.6569 3 13 4.34315 13 6V12ZM3 4H10C11.1046 4 12 4.89543 12 6V13C12 14.1046 11.1046 15 10 15H3C1.89543 15 1 14.1046 1 13V6C1 4.89543 1.89543 4 3 4Z" fill="#2C2D2E"/>
</svg>
