<svg width="16" height="16" viewBox="0 0 16 16" fill="none" xmlns="http://www.w3.org/2000/svg">
<path fill-rule="evenodd" clip-rule="evenodd" d="M16 3.552V12C16 13.657 14.657 15 13 15H3C1.343 15 6.0915e-08 13.657 6.0915e-08 12V3.55203C-7.61439e-08 3.55168 6.0915e-08 3.55134 6.0915e-08 3.551C6.0915e-08 2.142 1.143 1 2.554 1H13.446C14.8567 1 15.9995 2.14245 16 3.552C16 3.55233 16 3.55168 16 3.552ZM5.492 8C4.892 8 4.305 7.82 3.808 7.483L1.121 5.663C1.07968 5.635 1.03934 5.60591 1 5.57577V12C1 13.1047 1.89528 14 3 14H13C14.1047 14 15 13.1047 15 12V5.57657C14.961 5.60643 14.921 5.63526 14.88 5.663L12.193 7.483C11.695 7.82 11.109 8 10.508 8H5.492ZM15 3.552C15 4.06606 14.7447 4.54693 14.3193 4.83498L11.6326 6.65481C11.2996 6.8801 10.9088 7 10.508 7H5.492C5.09191 7 4.70044 6.87992 4.36922 6.65533L1.68195 4.83515C1.25516 4.54588 1 4.06469 1 3.551C1 2.69531 1.69426 2 2.554 2H13.446C14.3055 2 15 2.69505 15 3.552Z" fill="#2C2D2E"/>
</svg>
