<svg width="16" height="16" viewBox="0 0 16 16" fill="none" xmlns="http://www.w3.org/2000/svg">
<path d="M9.5 0C9.77614 0 10 0.223858 10 0.5C10 0.776142 9.77614 1 9.5 1H2C1.44772 1 1 1.44772 1 2V13C1 13.5523 1.44772 14 2 14H9.5C9.77614 14 10 14.2239 10 14.5C10 14.7761 9.77614 15 9.5 15H2C0.895431 15 0 14.1046 0 13V2C0 0.895431 0.895431 0 2 0H9.5Z" fill="#2C2D2E"/>
<path d="M11.6746 3.62037C11.4649 3.80008 11.4407 4.11573 11.6204 4.3254L13.9129 7H5.5C5.22386 7 5 7.22386 5 7.5C5 7.77614 5.22386 8 5.5 8H13.9129L11.6204 10.6746C11.4407 10.8843 11.4649 11.1999 11.6746 11.3796C11.8843 11.5593 12.1999 11.5351 12.3796 11.3254L15.3796 7.8254C15.5401 7.63815 15.5401 7.36185 15.3796 7.1746L12.3796 3.6746C12.1999 3.46494 11.8843 3.44066 11.6746 3.62037Z" fill="#2C2D2E"/>
</svg>
