<svg width="16" height="16" viewBox="0 0 16 16" fill="none" xmlns="http://www.w3.org/2000/svg">
<path fill-rule="evenodd" clip-rule="evenodd" d="M5 13C2.23858 13 0 10.7614 0 8C0 5.23858 2.23858 3 5 3H11C13.7614 3 16 5.23858 16 8C16 10.7614 13.7614 13 11 13H5ZM9 8C9 10.2091 7.20914 12 5 12C2.79086 12 1 10.2091 1 8C1 5.79086 2.79086 4 5 4C7.20914 4 9 5.79086 9 8ZM8.00049 12C9.21466 11.0878 10 9.6356 10 8C10 6.3644 9.21466 4.91223 8.00049 4H11C13.2091 4 15 5.79086 15 8C15 10.2091 13.2091 12 11 12H8.00049Z" fill="#2C2D2E"/>
</svg>
