<svg width="18" height="16" viewBox="0 0 18 16" fill="none" xmlns="http://www.w3.org/2000/svg">
<path fill-rule="evenodd" clip-rule="evenodd" d="M12.793 9.86382C12.9883 10.0591 13.3049 10.0591 13.5001 9.86382L15.594 7.76996C16.4612 6.90269 16.9876 5.73749 17.0175 4.51809C17.0472 3.30584 16.6067 2.14534 15.7323 1.29794C14.886 0.453325 13.7288 0.0135684 12.5173 0.0432533C11.3053 0.072954 10.1387 0.569414 9.26608 1.44205L9.61963 1.7956L9.26607 1.44205L7.17221 3.53591C6.97695 3.73118 6.97695 4.04776 7.17221 4.24302C7.36747 4.43828 7.68406 4.43828 7.87932 4.24302L9.97318 2.14916C10.6646 1.45775 11.5869 1.06635 12.5418 1.04295C13.496 1.01957 14.3854 1.3653 15.0281 2.00797L15.034 2.01388L15.034 2.01383C15.6962 2.65424 16.0411 3.54025 16.0178 4.49359C15.9946 5.44118 15.5836 6.36611 14.8869 7.06285L12.793 9.15671C12.5977 9.35198 12.5977 9.66856 12.793 9.86382ZM10.1201 11.7816L8.02621 13.8755C7.3337 14.568 6.43551 14.9578 5.45756 14.9817C4.50437 15.0051 3.61815 14.6601 2.97781 13.998L2.96597 13.9861C2.30379 13.3457 1.95885 12.4597 1.98221 11.5064C2.00543 10.5588 2.41639 9.63384 3.11312 8.93711L5.20699 6.84325C5.40225 6.64798 5.40225 6.3314 5.20699 6.13614C5.01173 5.94088 4.69514 5.94088 4.49988 6.13614L2.40602 8.23C1.53875 9.09727 1.01239 10.2625 0.982509 11.4819C0.952837 12.6927 1.3923 13.852 2.26477 14.6991C3.1119 15.5717 4.27138 16.0111 5.48205 15.9814C6.72016 15.9511 7.86174 15.4542 8.73332 14.5826L10.8272 12.4888C11.0224 12.2935 11.0224 11.9769 10.8272 11.7816C10.6319 11.5864 10.3153 11.5864 10.1201 11.7816ZM5.47296 11.4745C5.66822 11.6697 5.9848 11.6697 6.18007 11.4745L12.4617 5.19289C12.6569 4.99763 12.6569 4.68104 12.4617 4.48578C12.2664 4.29052 11.9498 4.29052 11.7545 4.48578L5.47296 10.7674C5.2777 10.9626 5.2777 11.2792 5.47296 11.4745Z" fill="#2C2D2E"/>
</svg>
