<svg width="16" height="16" viewBox="0 0 16 16" fill="none" xmlns="http://www.w3.org/2000/svg">
<g clip-path="url(#clip0_804_8565)">
<path d="M10.2929 9L8.64645 10.6464L9.35356 11.3535L11.8536 8.85353C12.0488 8.65827 12.0488 8.34169 11.8536 8.14642L9.35356 5.64642L8.64645 6.35353L10.2929 8H4V9H10.2929Z" fill="#2C2D2E"/>
<path fill-rule="evenodd" clip-rule="evenodd" d="M4 0.5C4 0.223858 4.22386 0 4.5 0V0C4.77614 0 5 0.223858 5 0.5V2H11V0.5C11 0.223858 11.2239 0 11.5 0V0C11.7761 0 12 0.223858 12 0.5V2H13C14.6569 2 16 3.34315 16 5V13C16 14.6569 14.6569 16 13 16H3C1.34315 16 0 14.6569 0 13V5C0 3.34315 1.34315 2 3 2H4V0.5ZM13 3H3C1.89543 3 1 3.89543 1 5V13C1 14.1046 1.89543 15 3 15H13C14.1046 15 15 14.1046 15 13V5C15 3.89543 14.1046 3 13 3Z" fill="#2C2D2E"/>
</g>
<defs>
<clipPath id="clip0_804_8565">
<rect width="16" height="16" fill="white"/>
</clipPath>
</defs>
</svg>
