<svg width="16" height="16" viewBox="0 0 16 16" fill="none" xmlns="http://www.w3.org/2000/svg">
<g clip-path="url(#clip0_804_8566)">
<path d="M11 9H5V10H11V9Z" fill="#2C2D2E"/>
<path fill-rule="evenodd" clip-rule="evenodd" d="M4.5 0C4.22386 0 4 0.223858 4 0.5V2H3C1.34315 2 0 3.34315 0 5V13C0 14.6569 1.34315 16 3 16H13C14.6569 16 16 14.6569 16 13V5C16 3.34315 14.6569 2 13 2H12V0.5C12 0.223858 11.7761 0 11.5 0C11.2239 0 11 0.223858 11 0.5V2H5V0.5C5 0.223858 4.77614 0 4.5 0ZM3 3H13C14.1046 3 15 3.89543 15 5V13C15 14.1046 14.1046 15 13 15H3C1.89543 15 1 14.1046 1 13V5C1 3.89543 1.89543 3 3 3Z" fill="#2C2D2E"/>
</g>
<defs>
<clipPath id="clip0_804_8566">
<rect width="16" height="16" fill="white"/>
</clipPath>
</defs>
</svg>
