<svg width="16" height="16" viewBox="0 0 16 16" fill="none" xmlns="http://www.w3.org/2000/svg">
<path d="M8.5 14C8.77614 14 9 13.7761 9 13.5V8H14.5C14.7761 8 15 7.77614 15 7.5C15 7.22386 14.7761 7 14.5 7H9V1.5C9 1.22386 8.77614 1 8.5 1C8.22386 1 8 1.22386 8 1.5L8 7H2.5C2.22386 7 2 7.22386 2 7.5C2 7.77614 2.22386 8 2.5 8H8L8 13.5C8 13.7761 8.22386 14 8.5 14Z" fill="#2C2D2E"/>
<path d="M8.5 14C8.77614 14 9 13.7761 9 13.5V8H14.5C14.7761 8 15 7.77614 15 7.5C15 7.22386 14.7761 7 14.5 7H9V1.5C9 1.22386 8.77614 1 8.5 1C8.22386 1 8 1.22386 8 1.5L8 7H2.5C2.22386 7 2 7.22386 2 7.5C2 7.77614 2.22386 8 2.5 8H8L8 13.5C8 13.7761 8.22386 14 8.5 14Z" fill="#2C2D2E"/>
</svg>
