<svg width="16" height="16" viewBox="0 0 16 16" fill="none" xmlns="http://www.w3.org/2000/svg">
<path fill-rule="evenodd" clip-rule="evenodd" d="M9.30659 3.29857C8.18916 2.75806 6.80593 2.95143 5.87868 3.87868C4.70711 5.05025 4.70711 6.94975 5.87868 8.12132C7.05025 9.29289 8.94975 9.29289 10.1213 8.12132C11.0486 7.19407 11.2419 5.81084 10.7014 4.69341C10.559 4.39898 10.3656 4.123 10.1213 3.87868C9.877 3.63436 9.60102 3.44099 9.30659 3.29857ZM9.41422 7.41422C10.1953 6.63317 10.1953 5.36683 9.41422 4.58578C8.63317 3.80474 7.36683 3.80474 6.58578 4.58578C5.80474 5.36683 5.80474 6.63317 6.58578 7.41422C7.36683 8.19526 8.63317 8.19526 9.41422 7.41422Z" fill="#2C2D2E"/>
<path fill-rule="evenodd" clip-rule="evenodd" d="M12.9075 1.68096C9.76899 -0.762765 5.22833 -0.542035 2.34315 2.34315C-0.781049 5.46733 -0.781049 10.5327 2.34315 13.6569C5.46733 16.781 10.5327 16.781 13.6568 13.6569C16.542 10.7717 16.7628 6.23102 14.319 3.09254C14.1166 2.83254 13.8959 2.58216 13.6568 2.34315C13.4178 2.10414 13.1675 1.88341 12.9075 1.68096ZM13.0041 12.8948C12.9861 12.9132 12.968 12.9315 12.9497 12.9497C10.2161 15.6834 5.78391 15.6834 3.05026 12.9497C3.03213 12.9316 3.01412 12.9134 2.99623 12.8951C4.34245 12.0306 6.08326 11.5 7.99999 11.5C9.91683 11.5 11.6578 12.0307 13.0041 12.8948ZM13.6559 12.1261C15.6587 9.38794 15.4233 5.5238 12.9497 3.05026C10.2161 0.316585 5.78393 0.316582 3.05026 3.05026C0.576615 5.52388 0.341315 9.38826 2.34437 12.1265C3.87845 11.1078 5.85348 10.5 7.99999 10.5C10.1467 10.5 12.1218 11.1079 13.6559 12.1261Z" fill="#2C2D2E"/>
</svg>
