<svg width="16" height="16" viewBox="0 0 16 16" fill="none" xmlns="http://www.w3.org/2000/svg">
<path d="M3 0.5C3 0.223858 3.22386 0 3.5 0H12.5C12.7761 0 13 0.223858 13 0.5C13 0.776142 12.7761 1 12.5 1H3.5C3.22386 1 3 0.776142 3 0.5Z" fill="#2C2D2E"/>
<path fill-rule="evenodd" clip-rule="evenodd" d="M3 3C1.34315 3 0 4.34315 0 6V10C0 11.6569 1.34315 13 3 13H13C14.6569 13 16 11.6569 16 10V6C16 4.34315 14.6569 3 13 3H3ZM13 4H3C1.89543 4 1 4.89543 1 6V10C1 11.1046 1.89543 12 3 12H13C14.1046 12 15 11.1046 15 10V6C15 4.89543 14.1046 4 13 4Z" fill="#2C2D2E"/>
<path d="M3.5 15C3.22386 15 3 15.2239 3 15.5C3 15.7761 3.22386 16 3.5 16H12.5C12.7761 16 13 15.7761 13 15.5C13 15.2239 12.7761 15 12.5 15H3.5Z" fill="#2C2D2E"/>
</svg>
