<svg width="16" height="16" viewBox="0 0 16 16" fill="none" xmlns="http://www.w3.org/2000/svg">
<g clip-path="url(#clip0_1668_8562)">
<path fill-rule="evenodd" clip-rule="evenodd" d="M7.26316 1.5C5.73467 1.5 4.26879 2.10719 3.18799 3.18799C2.10719 4.26879 1.5 5.73467 1.5 7.26316C1.5 8.79164 2.10719 10.2575 3.18799 11.3383C4.26879 12.4191 5.73467 13.0263 7.26316 13.0263C8.78627 13.0263 10.2472 12.4234 11.3269 11.3497C11.3316 11.3446 11.3364 11.3397 11.3413 11.3348C11.3458 11.3302 11.3504 11.3258 11.3551 11.3215C12.4254 10.2424 13.0263 8.78373 13.0263 7.26316C13.0263 5.73467 12.4191 4.26879 11.3383 3.18799C10.2575 2.10719 8.79164 1.5 7.26316 1.5ZM12.3884 11.676C13.4415 10.4529 14.0263 8.88819 14.0263 7.26316C14.0263 5.46946 13.3138 3.74922 12.0454 2.48088C10.7771 1.21255 9.05686 0.5 7.26316 0.5C5.46946 0.5 3.74922 1.21255 2.48088 2.48088C1.21255 3.74922 0.5 5.46946 0.5 7.26316C0.5 9.05686 1.21255 10.7771 2.48088 12.0454C3.74922 13.3138 5.46946 14.0263 7.26316 14.0263C8.89071 14.0263 10.4578 13.4397 11.6816 12.3835L14.6461 15.3532C14.8412 15.5487 15.1578 15.549 15.3532 15.3539C15.5487 15.1588 15.549 14.8422 15.3539 14.6468L12.3884 11.676Z" fill="#2C2D2E"/>
</g>
<defs>
<clipPath id="clip0_1668_8562">
<rect width="16" height="16" fill="white"/>
</clipPath>
</defs>
</svg>
