<svg width="16" height="16" viewBox="0 0 16 16" fill="none" xmlns="http://www.w3.org/2000/svg">
<g clip-path="url(#clip0_3576_754)">
<path fill-rule="evenodd" clip-rule="evenodd" d="M11 8C11 9.65685 9.65685 11 8 11C6.34315 11 5 9.65685 5 8C5 6.34315 6.34315 5 8 5C9.65685 5 11 6.34315 11 8ZM10 8C10 9.10457 9.10457 10 8 10C6.89543 10 6 9.10457 6 8C6 6.89543 6.89543 6 8 6C9.10457 6 10 6.89543 10 8Z" fill="#2C2D2E"/>
<path fill-rule="evenodd" clip-rule="evenodd" d="M5.55177 2.08879C4.80797 2.39671 3.94899 2.13518 3.34115 1.49695C2.62899 2.00626 2.00583 2.62968 1.49683 3.34206C2.13507 3.94909 2.3966 4.80806 2.08868 5.55186C1.78076 6.29486 0.988966 6.71714 0.107596 6.69635C-0.0358654 7.55953 -0.0358654 8.44047 0.107596 9.30365C0.988166 9.28205 1.78076 9.70434 2.08868 10.4481C2.3966 11.1919 2.13507 12.0509 1.49683 12.6587C2.00614 13.3709 2.62957 13.9941 3.34195 14.503C3.94899 13.8648 4.80797 13.6033 5.55177 13.9112C6.29478 14.2191 6.71707 15.0109 6.69547 15.8923C7.55918 16.0359 8.44068 16.0359 9.30439 15.8923C9.2828 15.0117 9.70429 14.2191 10.4481 13.9112C11.1919 13.6033 12.0509 13.8648 12.6587 14.503C13.3709 13.9937 13.994 13.3703 14.503 12.6579C13.8648 12.0509 13.6033 11.1919 13.9112 10.4481C14.2191 9.70514 15.0109 9.28285 15.8923 9.30445C16.0359 8.44075 16.0359 7.55925 15.8923 6.69555C15.0117 6.71715 14.2191 6.29566 13.9112 5.55186C13.6033 4.80806 13.8648 3.94909 14.503 3.34126C13.9937 2.6291 13.3703 2.00595 12.6579 1.49695C12.0509 2.13518 11.1919 2.39671 10.4481 2.08879C9.70509 1.78088 9.2828 0.98909 9.30439 0.107728C8.44068 -0.0359094 7.55918 -0.0359094 6.69547 0.107728C6.71707 0.988291 6.29558 1.78088 5.55177 2.08879ZM3.01263 5.93436C3.38392 5.03749 3.226 4.10349 2.77107 3.34625C2.95128 3.14352 3.14321 2.95151 3.34587 2.77121C4.10327 3.22602 5.03725 3.3841 5.93427 3.01275C6.83184 2.64118 7.37976 1.8686 7.59336 1.0119C7.86418 0.996035 8.13571 0.996034 8.40653 1.0119C8.62031 1.86906 9.1687 2.64106 10.0652 3.01261C10.9621 3.38389 11.8965 3.22611 12.6537 2.77118C12.8565 2.9514 13.0485 3.14332 13.2288 3.34597C12.774 4.10337 12.6159 5.03734 12.9872 5.93436C13.3588 6.83193 14.1314 7.37984 14.9881 7.59344C15.004 7.86426 15.004 8.13577 14.9881 8.40658C14.1309 8.62036 13.3589 9.16875 12.9874 10.0653C12.6161 10.9622 12.7739 11.8965 13.2288 12.6537C13.0486 12.8565 12.8567 13.0485 12.654 13.2288C11.8966 12.774 10.9626 12.6159 10.0656 12.9873C9.16802 13.3588 8.62011 14.1314 8.4065 14.9881C8.13568 15.004 7.86416 15.004 7.59334 14.9881C7.37955 14.1309 6.83116 13.3589 5.93462 12.9874C5.03775 12.6161 4.10339 12.7739 3.34614 13.2288C3.14341 13.0486 2.9514 12.8567 2.77109 12.654C3.2259 11.8966 3.38398 10.9627 3.01263 10.0656C2.6412 9.16841 1.86882 8.61982 1.01186 8.40591C0.996039 8.13541 0.996046 7.86421 1.01188 7.59371C1.86883 7.37962 2.64104 6.831 3.01263 5.93436Z" fill="#2C2D2E"/>
</g>
<defs>
<clipPath id="clip0_3576_754">
<rect width="16" height="16" fill="white"/>
</clipPath>
</defs>
</svg>
