<svg width="16" height="16" viewBox="0 0 16 16" fill="none" xmlns="http://www.w3.org/2000/svg">
<path d="M6.41376 3.52076C6.56883 3.29228 6.50932 2.98134 6.28083 2.82626C6.05234 2.67119 5.7414 2.7307 5.58633 2.95919C4.99438 3.83137 4.23357 4.25998 3.50004 4.25998C2.77104 4.25998 2.03156 3.83605 1.4088 2.95202C1.24976 2.72627 0.937836 2.67219 0.712086 2.83122C0.486336 2.99026 0.432252 3.30218 0.591285 3.52793C1.33519 4.58391 2.34571 5.25998 3.50004 5.25998C4.64985 5.25998 5.68903 4.58858 6.41376 3.52076Z" fill="#2C2D2E"/>
<path d="M15.2808 2.82626C15.5093 2.98134 15.5688 3.29228 15.4138 3.52076C14.689 4.58858 13.6498 5.25998 12.5 5.25998C11.3457 5.25998 10.3352 4.58391 9.59129 3.52793C9.43225 3.30218 9.48634 2.99026 9.71209 2.83122C9.93784 2.67219 10.2498 2.72627 10.4088 2.95202C11.0316 3.83605 11.771 4.25998 12.5 4.25998C13.2336 4.25998 13.9944 3.83137 14.5863 2.95919C14.7414 2.7307 15.0523 2.67119 15.2808 2.82626Z" fill="#2C2D2E"/>
<path d="M2.39997 13.3001L2.40268 13.2966L2.41819 13.2767C2.43277 13.2583 2.45577 13.2298 2.48701 13.1926C2.5495 13.1181 2.64476 13.0092 2.77126 12.8772C3.02467 12.6129 3.40105 12.2586 3.88817 11.9044C4.86434 11.1945 6.26324 10.5 8.00003 10.5C9.73771 10.5 11.1366 11.1945 12.1125 11.9044C12.5995 12.2586 12.9757 12.6128 13.229 12.8772C13.2769 12.9272 13.3203 12.9738 13.3591 13.0166C13.4228 13.0867 13.4742 13.1462 13.513 13.1925C13.5442 13.2297 13.5672 13.2582 13.5818 13.2766L13.5973 13.2964L13.6 13.2999C13.5999 13.2998 13.6 13.2999 14 13C14.4001 12.7001 14.4 12.6999 14.3998 12.6997L14.3987 12.6983L14.3965 12.6954L14.3897 12.6864L14.3659 12.656C14.3457 12.6305 14.3167 12.5946 14.2791 12.5497C14.2039 12.4601 14.0941 12.3346 13.951 12.1853C13.6654 11.8872 13.2449 11.4914 12.7007 11.0956C11.6143 10.3055 10.0132 9.5 8.00003 9.5C5.98768 9.5 4.38658 10.3055 3.30003 11.0956C2.75579 11.4914 2.33514 11.8871 2.04936 12.1853C1.90626 12.3345 1.79637 12.46 1.72113 12.5496C1.68349 12.5944 1.65448 12.6304 1.63425 12.6559L1.61052 12.6862L1.60363 12.6952L1.60144 12.6981L1.60066 12.6992C1.60052 12.6993 1.60008 12.6999 2.00003 13L1.60066 12.6992C1.43493 12.92 1.47907 13.2342 1.69996 13.3999C1.92075 13.5656 2.23419 13.5207 2.39997 13.3001Z" fill="#2C2D2E"/>
</svg>
