<svg width="16" height="16" viewBox="0 0 16 16" fill="none" xmlns="http://www.w3.org/2000/svg">
<path d="M2 11H14V12H2V11Z" fill="#2C2D2E"/>
<path d="M0 8.5C0 8.22386 0.223858 8 0.5 8H1.5C1.77614 8 2 8.22386 2 8.5C2 8.77614 1.77614 9 1.5 9H0.5C0.223858 9 0 8.77614 0 8.5Z" fill="#2C2D2E"/>
<path d="M2.14645 2.85355C2.34171 2.65829 2.65829 2.65829 2.85355 2.85355L3.56066 3.56066C3.75592 3.75592 3.75592 4.0725 3.56066 4.26777C3.3654 4.46303 3.04882 4.46303 2.85355 4.26777L2.14645 3.56066C1.95118 3.3654 1.95118 3.04882 2.14645 2.85355Z" fill="#2C2D2E"/>
<path d="M13.8536 2.85355C13.6583 2.65829 13.3417 2.65829 13.1464 2.85355L12.4393 3.56066C12.2441 3.75592 12.2441 4.0725 12.4393 4.26777C12.6346 4.46303 12.9512 4.46303 13.1464 4.26777L13.8536 3.56066C14.0488 3.3654 14.0488 3.04882 13.8536 2.85355Z" fill="#2C2D2E"/>
<path d="M8 1C7.72386 1 7.5 1.22386 7.5 1.5V2.5C7.5 2.77614 7.72386 3 8 3C8.27614 3 8.5 2.77614 8.5 2.5V1.5C8.5 1.22386 8.27614 1 8 1Z" fill="#2C2D2E"/>
<path d="M14 8.5C14 8.22386 14.2239 8 14.5 8H15.5C15.7761 8 16 8.22386 16 8.5C16 8.77614 15.7761 9 15.5 9H14.5C14.2239 9 14 8.77614 14 8.5Z" fill="#2C2D2E"/>
<path d="M5 14H11V15H5V14Z" fill="#2C2D2E"/>
<path fill-rule="evenodd" clip-rule="evenodd" d="M12 9H13C13 6.23858 10.7614 4 8 4C5.23858 4 3 6.23858 3 9H4C4 6.79086 5.79086 5 8 5C10.2091 5 12 6.79086 12 9Z" fill="#2C2D2E"/>
</svg>
