<svg width="16" height="16" viewBox="0 0 16 16" fill="none" xmlns="http://www.w3.org/2000/svg">
<path fill-rule="evenodd" clip-rule="evenodd" d="M12 4C12 6.20914 10.2091 8 8 8C5.79086 8 4 6.20914 4 4C4 1.79086 5.79086 0 8 0C10.2091 0 12 1.79086 12 4ZM11 4C11 5.65685 9.65685 7 8 7C6.34315 7 5 5.65685 5 4C5 2.34315 6.34315 1 8 1C9.65685 1 11 2.34315 11 4Z" fill="#2C2D2E"/>
<path fill-rule="evenodd" clip-rule="evenodd" d="M0 13V14C0 15.1046 0.895431 16 2 16H14C15.1046 16 16 15.1046 16 14V13C16 12 13 10 8 10C3 10 0 12 0 13ZM1 14V13.0925C1.02325 13.0564 1.0828 12.9742 1.22114 12.8479C1.48336 12.6084 1.91854 12.3173 2.5388 12.0354C3.77193 11.4749 5.62905 11 8 11C10.371 11 12.2281 11.4749 13.4612 12.0354C14.0815 12.3173 14.5166 12.6084 14.7789 12.8479C14.9172 12.9742 14.9767 13.0564 15 13.0925V14C15 14.5523 14.5523 15 14 15H2C1.44772 15 1 14.5523 1 14Z" fill="#2C2D2E"/>
</svg>
