<svg width="16" height="16" viewBox="0 0 16 16" fill="none" xmlns="http://www.w3.org/2000/svg">
<path fill-rule="evenodd" clip-rule="evenodd" d="M2 6V4C2 2.34315 3.34315 1 5 1H11C12.6569 1 14 2.34315 14 4V6C15.1046 6 16 6.89543 16 8V11C16 12.6569 14.6569 14 13 14V15H12V14H4V15H3V14C1.34315 14 0 12.6569 0 11V8C0 6.89543 0.895431 6 2 6ZM3 4V6C4.10457 6 5 6.89543 5 8V9H11V8C11 6.89543 11.8954 6 13 6V4C13 2.89543 12.1046 2 11 2H5C3.89543 2 3 2.89543 3 4ZM4 10H12V8C12 7.44772 12.4477 7 13 7H14C14.5523 7 15 7.44772 15 8V11C15 12.1046 14.1046 13 13 13H3C1.89543 13 1 12.1046 1 11V8C1 7.44772 1.44772 7 2 7H3C3.55228 7 4 7.44772 4 8V10Z" fill="#2C2D2E"/>
</svg>
