<svg width="24" height="24" viewBox="0 0 24 24" fill="none" xmlns="http://www.w3.org/2000/svg">
<path d="M9.8737 8.33218C10.0572 8.12579 10.0386 7.80975 9.83218 7.6263C9.62579 7.44284 9.30975 7.46143 9.1263 7.66782L5.12772 12.1662C5.04831 12.2547 5 12.3717 5 12.5C5 12.6283 5.04831 12.7453 5.12774 12.8338L9.1263 17.3322C9.30975 17.5386 9.62579 17.5572 9.83218 17.3737C10.0386 17.1902 10.0572 16.8742 9.8737 16.6678L6.61342 13H18.5C18.7761 13 19 12.7761 19 12.5C19 12.2239 18.7761 12 18.5 12H6.61342L9.8737 8.33218Z" fill="#2C2D2E"/>
</svg>
