<svg width="24" height="24" viewBox="0 0 24 24" fill="none" xmlns="http://www.w3.org/2000/svg">
<path fill-rule="evenodd" clip-rule="evenodd" d="M8 4.5C8 4.22386 8.22386 4 8.5 4V4C8.77614 4 9 4.22386 9 4.5V6H15V4.5C15 4.22386 15.2239 4 15.5 4V4C15.7761 4 16 4.22386 16 4.5V6H17C18.6569 6 20 7.34315 20 9V17C20 18.6569 18.6569 20 17 20H7C5.34315 20 4 18.6569 4 17V9C4 7.34315 5.34315 6 7 6H8V4.5ZM7 7H17C18.1046 7 19 7.89543 19 9V11H5V9C5 7.89543 5.89543 7 7 7ZM19 12V17C19 18.1046 18.1046 19 17 19H7C5.89543 19 5 18.1046 5 17V12H19Z" fill="#2C2D2E"/>
</svg>
