<svg width="24" height="24" viewBox="0 0 24 24" fill="none" xmlns="http://www.w3.org/2000/svg">
<path d="M6.64645 7.35355C6.45118 7.15829 6.45118 6.8417 6.64645 6.64644C6.84171 6.45118 7.15829 6.45118 7.35355 6.64644L12 11.2929L16.6464 6.64644C16.8417 6.45118 17.1583 6.45118 17.3536 6.64644C17.5488 6.8417 17.5488 7.15829 17.3536 7.35355L12.7071 12L17.3535 16.6464C17.5488 16.8416 17.5488 17.1582 17.3535 17.3535C17.1582 17.5488 16.8416 17.5488 16.6464 17.3535L12 12.7071L7.35361 17.3535C7.15835 17.5488 6.84177 17.5488 6.64651 17.3535C6.45124 17.1582 6.45124 16.8416 6.64651 16.6464L11.2929 12L6.64645 7.35355Z" fill="#2C2D2E"/>
</svg>
