<svg width="24" height="24" viewBox="0 0 24 24" fill="none" xmlns="http://www.w3.org/2000/svg">
<path d="M12.5 4.29289L15.8536 7.64645C16.0488 7.84171 16.0488 8.15829 15.8536 8.35355C15.6583 8.54881 15.3417 8.54881 15.1464 8.35355L13 6.20711V17.7929L15.1464 15.6464C15.3417 15.4512 15.6583 15.4512 15.8536 15.6464C16.0488 15.8417 16.0488 16.1583 15.8536 16.3536L12.5 19.7071L9.14645 16.3536C8.95118 16.1583 8.95118 15.8417 9.14645 15.6464C9.34171 15.4512 9.65829 15.4512 9.85355 15.6464L12 17.7929V6.20711L9.85355 8.35355C9.65829 8.54881 9.34171 8.54881 9.14645 8.35355C8.95118 8.15829 8.95118 7.84171 9.14645 7.64645L12.5 4.29289Z" fill="#2C2D2E"/>
</svg>
