<svg width="24" height="24" viewBox="0 0 24 24" fill="none" xmlns="http://www.w3.org/2000/svg">
<path d="M10.5 11C10.2239 11 10 11.2239 10 11.5V13H8.5C8.22386 13 8 13.2239 8 13.5C8 13.7761 8.22386 14 8.5 14H10V15.5C10 15.7761 10.2239 16 10.5 16C10.7761 16 11 15.7761 11 15.5V14H12.5C12.7761 14 13 13.7761 13 13.5C13 13.2239 12.7761 13 12.5 13H11V11.5C11 11.2239 10.7761 11 10.5 11Z" fill="#2C2D2E"/>
<path fill-rule="evenodd" clip-rule="evenodd" d="M10 4C8.34315 4 7 5.34315 7 7C5.34315 7 4 8.34315 4 10V17C4 18.6569 5.34315 20 7 20H14C15.6569 20 17 18.6569 17 17C18.6569 17 20 15.6569 20 14V7C20 5.34315 18.6569 4 17 4H10ZM17 16C18.1046 16 19 15.1046 19 14V7C19 5.89543 18.1046 5 17 5H10C8.89543 5 8 5.89543 8 7H14C15.6569 7 17 8.34315 17 10V16ZM7 8H14C15.1046 8 16 8.89543 16 10V17C16 18.1046 15.1046 19 14 19H7C5.89543 19 5 18.1046 5 17V10C5 8.89543 5.89543 8 7 8Z" fill="#2C2D2E"/>
</svg>
