<svg width="24" height="24" viewBox="0 0 24 24" fill="none" xmlns="http://www.w3.org/2000/svg">
<path fill-rule="evenodd" clip-rule="evenodd" d="M19.6657 6.24979C20.1114 6.69552 20.1114 7.41898 19.6657 7.86471L7.86386 19.6651C7.65016 19.88 7.35988 20 7.05703 20H4V16.9427C4 16.6399 4.12 16.3496 4.33485 16.1359L16.1356 4.3343C16.5813 3.88857 17.3047 3.88857 17.7504 4.3343L19.6657 6.24979ZM5.04009 16.8448L14.0886 7.79569L16.2044 9.9115L7.1568 18.958L7.15485 18.9599C7.12986 18.9851 7.09519 19 7.05703 19H5V16.9427C5 16.9045 5.01496 16.8698 5.04009 16.8448ZM16.9115 9.20443L18.9586 7.15763C19.0137 7.10241 19.0138 7.01206 18.9586 6.95688L17.0432 5.04138C16.9881 4.98621 16.8979 4.98621 16.8427 5.04138L14.7957 7.08856L16.9115 9.20443Z" fill="#2C2D2E"/>
</svg>
