<svg width="24" height="24" viewBox="0 0 24 24" fill="none" xmlns="http://www.w3.org/2000/svg">
<path fill-rule="evenodd" clip-rule="evenodd" d="M20 7.552V16C20 17.657 18.657 19 17 19H7C5.343 19 4 17.657 4 16V7.552C4 7.55167 4 7.55133 4 7.551C4 6.142 5.143 5 6.554 5H17.446C18.8567 5 19.9995 6.14246 20 7.552C20 7.55233 20 7.55167 20 7.552ZM9.492 12C8.892 12 8.305 11.82 7.808 11.483L5.121 9.663C5.07968 9.635 5.03934 9.60591 5 9.57577V16C5 17.1047 5.89528 18 7 18H17C18.1047 18 19 17.1047 19 16V9.57657C18.961 9.60643 18.921 9.63526 18.88 9.663L16.193 11.483C15.695 11.82 15.109 12 14.508 12H9.492ZM19 7.552C19 8.06606 18.7447 8.54693 18.3193 8.83498L15.6326 10.6548C15.2996 10.8801 14.9088 11 14.508 11H9.492C9.09191 11 8.70044 10.8799 8.36922 10.6553L5.68195 8.83515C5.25516 8.54588 5 8.06469 5 7.551C5 6.69531 5.69426 6 6.554 6H17.446C18.3055 6 19 6.69505 19 7.552Z" fill="#2C2D2E"/>
</svg>
