<svg width="24" height="24" viewBox="0 0 24 24" fill="none" xmlns="http://www.w3.org/2000/svg">
<path d="M13.5 4C13.7761 4 14 4.22386 14 4.5C14 4.77614 13.7761 5 13.5 5H6C5.44772 5 5 5.44772 5 6V17C5 17.5523 5.44772 18 6 18H13.5C13.7761 18 14 18.2239 14 18.5C14 18.7761 13.7761 19 13.5 19H6C4.89543 19 4 18.1046 4 17V6C4 4.89543 4.89543 4 6 4H13.5Z" fill="#2C2D2E"/>
<path d="M16.6746 7.62037C16.4649 7.80008 16.4407 8.11573 16.6204 8.3254L18.9129 11H9.5C9.22386 11 9 11.2239 9 11.5C9 11.7761 9.22386 12 9.5 12H18.9129L16.6204 14.6746C16.4407 14.8843 16.4649 15.1999 16.6746 15.3796C16.8843 15.5593 17.1999 15.5351 17.3796 15.3254L20.3796 11.8254C20.5401 11.6382 20.5401 11.3618 20.3796 11.1746L17.3796 7.6746C17.1999 7.46494 16.8843 7.44066 16.6746 7.62037Z" fill="#2C2D2E"/>
</svg>
