<svg width="24" height="24" viewBox="0 0 24 24" fill="none" xmlns="http://www.w3.org/2000/svg">
<path d="M4 11C4 9.34315 5.34315 8 7 8H17C18.6569 8 20 9.34315 20 11V17C20 18.6569 18.6569 20 17 20H7C5.34315 20 4 18.6569 4 17V11Z" fill="#2C2D2E"/>
<path d="M6 6.5C6 6.22386 6.22386 6 6.5 6H17.5C17.7761 6 18 6.22386 18 6.5C18 6.77614 17.7761 7 17.5 7H6.5C6.22386 7 6 6.77614 6 6.5Z" fill="#2C2D2E"/>
<path d="M8 4.5C8 4.22386 8.22386 4 8.5 4H15.5C15.7761 4 16 4.22386 16 4.5C16 4.77614 15.7761 5 15.5 5H8.5C8.22386 5 8 4.77614 8 4.5Z" fill="#2C2D2E"/>
</svg>
