<svg width="24" height="24" viewBox="0 0 24 24" fill="none" xmlns="http://www.w3.org/2000/svg">
<path fill-rule="evenodd" clip-rule="evenodd" d="M6 8C6 9.10457 6.89543 10 8 10C9.10457 10 10 9.10457 10 8C10 6.89543 9.10457 6 8 6C6.89543 6 6 6.89543 6 8ZM8 5C6.34315 5 5 6.34315 5 8C5 9.65685 6.34315 11 8 11C9.65685 11 11 9.65685 11 8C11 6.34315 9.65685 5 8 5Z" fill="#2C2D2E"/>
<path fill-rule="evenodd" clip-rule="evenodd" d="M14 8C14 9.10457 14.8954 10 16 10C17.1046 10 18 9.10457 18 8C18 6.89543 17.1046 6 16 6C14.8954 6 14 6.89543 14 8ZM16 5C14.3431 5 13 6.34315 13 8C13 9.65685 14.3431 11 16 11C17.6569 11 19 9.65685 19 8C19 6.34315 17.6569 5 16 5Z" fill="#2C2D2E"/>
<path fill-rule="evenodd" clip-rule="evenodd" d="M6 16C6 17.1046 6.89543 18 8 18C9.10457 18 10 17.1046 10 16C10 14.8954 9.10457 14 8 14C6.89543 14 6 14.8954 6 16ZM8 13C6.34315 13 5 14.3431 5 16C5 17.6569 6.34315 19 8 19C9.65685 19 11 17.6569 11 16C11 14.3431 9.65685 13 8 13Z" fill="#2C2D2E"/>
<path fill-rule="evenodd" clip-rule="evenodd" d="M14 16C14 17.1046 14.8954 18 16 18C17.1046 18 18 17.1046 18 16C18 14.8954 17.1046 14 16 14C14.8954 14 14 14.8954 14 16ZM16 13C14.3431 13 13 14.3431 13 16C13 17.6569 14.3431 19 16 19C17.6569 19 19 17.6569 19 16C19 14.3431 17.6569 13 16 13Z" fill="#2C2D2E"/>
</svg>
