<svg width="24" height="24" viewBox="0 0 24 24" fill="none" xmlns="http://www.w3.org/2000/svg">
<path fill-rule="evenodd" clip-rule="evenodd" d="M14.5 5C15.7095 5 16.7184 5.85888 16.95 7H19.5C19.7761 7 20 7.22386 20 7.5C20 7.77614 19.7761 8 19.5 8H16.95C16.7184 9.14112 15.7095 10 14.5 10C13.2905 10 12.2816 9.14112 12.05 8H4.5C4.22386 8 4 7.77614 4 7.5C4 7.22386 4.22386 7 4.5 7H12.05C12.2816 5.85888 13.2905 5 14.5 5ZM16 7.5C16 8.32843 15.3284 9 14.5 9C13.6716 9 13 8.32843 13 7.5C13 6.67157 13.6716 6 14.5 6C15.3284 6 16 6.67157 16 7.5Z" fill="#2C2D2E"/>
<path fill-rule="evenodd" clip-rule="evenodd" d="M7.05001 17C7.28164 18.1411 8.29052 19 9.5 19C10.7095 19 11.7184 18.1411 11.95 17H19.5C19.7761 17 20 16.7761 20 16.5C20 16.2239 19.7761 16 19.5 16H11.95C11.7184 14.8589 10.7095 14 9.5 14C8.29052 14 7.28164 14.8589 7.05001 16H4.5C4.22386 16 4 16.2239 4 16.5C4 16.7761 4.22386 17 4.5 17H7.05001ZM11 16.5C11 17.3284 10.3284 18 9.5 18C8.67157 18 8 17.3284 8 16.5C8 15.6716 8.67157 15 9.5 15C10.3284 15 11 15.6716 11 16.5Z" fill="#2C2D2E"/>
</svg>
