<svg width="24" height="24" viewBox="0 0 24 24" fill="none" xmlns="http://www.w3.org/2000/svg">
<path d="M8.5 4C8.22386 4 8 4.22386 8 4.5C8 4.77614 8.22386 5 8.5 5H15.5C15.7761 5 16 4.77614 16 4.5C16 4.22386 15.7761 4 15.5 4H8.5Z" fill="#2C2D2E"/>
<path d="M6 6.5C6 6.22386 6.22386 6 6.5 6H17.5C17.7761 6 18 6.22386 18 6.5C18 6.77614 17.7761 7 17.5 7H6.5C6.22386 7 6 6.77614 6 6.5Z" fill="#2C2D2E"/>
<path fill-rule="evenodd" clip-rule="evenodd" d="M7 8C5.34315 8 4 9.34315 4 11V17C4 18.6569 5.34315 20 7 20H17C18.6569 20 20 18.6569 20 17V11C20 9.34315 18.6569 8 17 8H7ZM17 9H7C5.89543 9 5 9.89543 5 11V17C5 18.1046 5.89543 19 7 19H17C18.1046 19 19 18.1046 19 17V11C19 9.89543 18.1046 9 17 9Z" fill="#2C2D2E"/>
</svg>
