<svg width="24" height="24" viewBox="0 0 24 24" fill="none" xmlns="http://www.w3.org/2000/svg">
<path d="M15.5 8C15.5 9.933 13.933 11.5 12 11.5C10.067 11.5 8.5 9.933 8.5 8C8.5 6.067 10.067 4.5 12 4.5C13.933 4.5 15.5 6.067 15.5 8ZM4.5 18V17C4.5 16.9723 4.54653 16.7868 4.88401 16.4786C5.1948 16.1948 5.67802 15.8774 6.3319 15.5802C7.63596 14.9874 9.56452 14.5 12 14.5C14.4355 14.5 16.364 14.9874 17.6681 15.5802C18.322 15.8774 18.8052 16.1948 19.116 16.4786C19.4535 16.7868 19.5 16.9723 19.5 17V18C19.5 18.8284 18.8284 19.5 18 19.5H6C5.17157 19.5 4.5 18.8284 4.5 18Z" stroke="#2C2D2E"/>
</svg>
