<svg width="24" height="24" viewBox="0 0 24 24" fill="none" xmlns="http://www.w3.org/2000/svg">
<path fill-rule="evenodd" clip-rule="evenodd" d="M15.793 13.8638C15.9883 14.0591 16.3049 14.0591 16.5001 13.8638L18.594 11.77C19.4613 10.9027 19.9876 9.73751 20.0175 8.51811C20.0472 7.30586 19.6067 6.14536 18.7323 5.29797C17.886 4.45335 16.7288 4.01359 15.5174 4.04328C14.3053 4.07298 13.1388 4.56944 12.2661 5.44207L12.6196 5.79563L12.2661 5.44207L10.1722 7.53594C9.97696 7.7312 9.97696 8.04778 10.1722 8.24304C10.3675 8.43831 10.6841 8.43831 10.8793 8.24304L12.9732 6.14919C13.6646 5.45777 14.5869 5.06638 15.5419 5.04298C16.496 5.0196 17.3854 5.36533 18.0281 6.00799L18.034 6.0139L18.034 6.01385C18.6962 6.65426 19.0412 7.54028 19.0178 8.49361C18.9946 9.4412 18.5836 10.3661 17.8869 11.0629L15.793 13.1567C15.5978 13.352 15.5978 13.6686 15.793 13.8638ZM13.1201 15.7817L11.0262 17.8755C10.3337 18.568 9.43553 18.9578 8.45757 18.9817C7.50438 19.0051 6.61816 18.6602 5.97782 17.998L5.96599 17.9862C5.3038 17.3457 4.95886 16.4597 4.98222 15.5064C5.00544 14.5588 5.4164 13.6339 6.11314 12.9371L8.207 10.8433C8.40226 10.648 8.40227 10.3314 8.207 10.1362C8.01174 9.9409 7.69516 9.9409 7.4999 10.1362L5.40603 12.23C4.53877 13.0973 4.0124 14.2625 3.98252 15.4819C3.95285 16.6928 4.39231 17.852 5.26479 18.6992C6.11191 19.5717 7.2714 20.0111 8.48207 19.9814C9.72018 19.9511 10.8618 19.4542 11.7333 18.5826L13.8272 16.4888C14.0225 16.2935 14.0225 15.9769 13.8272 15.7817C13.6319 15.5864 13.3154 15.5864 13.1201 15.7817ZM8.47297 15.4745C8.66824 15.6698 8.98482 15.6698 9.18008 15.4745L15.4617 9.19291C15.6569 8.99765 15.6569 8.68107 15.4617 8.4858C15.2664 8.29054 14.9498 8.29054 14.7546 8.4858L8.47297 14.7674C8.27771 14.9627 8.27771 15.2792 8.47297 15.4745Z" fill="#2C2D2E"/>
</svg>
