<svg width="24" height="24" viewBox="0 0 24 24" fill="none" xmlns="http://www.w3.org/2000/svg">
<path d="M12.5 18C12.7761 18 13 17.7761 13 17.5V12H18.5C18.7761 12 19 11.7761 19 11.5C19 11.2239 18.7761 11 18.5 11H13V5.5C13 5.22386 12.7761 5 12.5 5C12.2239 5 12 5.22386 12 5.5V11H6.5C6.22386 11 6 11.2239 6 11.5C6 11.7761 6.22386 12 6.5 12H12V17.5C12 17.7761 12.2239 18 12.5 18Z" fill="#2C2D2E"/>
<path d="M12.5 18C12.7761 18 13 17.7761 13 17.5V12H18.5C18.7761 12 19 11.7761 19 11.5C19 11.2239 18.7761 11 18.5 11H13V5.5C13 5.22386 12.7761 5 12.5 5C12.2239 5 12 5.22386 12 5.5V11H6.5C6.22386 11 6 11.2239 6 11.5C6 11.7761 6.22386 12 6.5 12H12V17.5C12 17.7761 12.2239 18 12.5 18Z" fill="#2C2D2E"/>
</svg>
