<svg width="24" height="24" viewBox="0 0 24 24" fill="none" xmlns="http://www.w3.org/2000/svg">
<path fill-rule="evenodd" clip-rule="evenodd" d="M11.1579 4.5C9.39211 4.5 7.69865 5.20145 6.45005 6.45005C5.20145 7.69865 4.5 9.39211 4.5 11.1579C4.5 12.9237 5.20145 14.6171 6.45005 15.8657C7.69865 17.1143 9.39211 17.8158 11.1579 17.8158C12.918 17.8158 14.6063 17.1188 15.8537 15.8777C15.8587 15.8723 15.8638 15.867 15.8691 15.8617C15.874 15.8568 15.8789 15.8521 15.884 15.8474C17.1212 14.6006 17.8158 12.9151 17.8158 11.1579C17.8158 9.39211 17.1143 7.69865 15.8657 6.45005C14.6171 5.20145 12.9237 4.5 11.1579 4.5ZM16.9177 16.2045C18.1375 14.8124 18.8158 13.0201 18.8158 11.1579C18.8158 9.12689 18.009 7.17908 16.5728 5.74295C15.1367 4.30681 13.1889 3.5 11.1579 3.5C9.12689 3.5 7.17908 4.30681 5.74295 5.74295C4.30681 7.17908 3.5 9.12689 3.5 11.1579C3.5 13.1889 4.30681 15.1367 5.74295 16.5728C7.17908 18.009 9.12689 18.8158 11.1579 18.8158C13.023 18.8158 14.818 18.1354 16.211 16.912L19.6461 20.3532C19.8412 20.5487 20.1578 20.549 20.3532 20.3539C20.5487 20.1588 20.549 19.8422 20.3539 19.6468L16.9177 16.2045Z" fill="#2C2D2E"/>
</svg>
