<svg width="24" height="24" viewBox="0 0 24 24" fill="none" xmlns="http://www.w3.org/2000/svg">
<path fill-rule="evenodd" clip-rule="evenodd" d="M15 12C15 13.6569 13.6569 15 12 15C10.3431 15 9 13.6569 9 12C9 10.3431 10.3431 9 12 9C13.6569 9 15 10.3431 15 12ZM14 12C14 13.1046 13.1046 14 12 14C10.8954 14 10 13.1046 10 12C10 10.8954 10.8954 10 12 10C13.1046 10 14 10.8954 14 12Z" fill="#2C2D2E"/>
<path fill-rule="evenodd" clip-rule="evenodd" d="M21.8653 13.6306C20.7636 13.6036 19.7739 14.1314 19.389 15.0602C19.0041 15.9899 19.331 17.0636 20.1288 17.8224C19.4925 18.7129 18.7136 19.4922 17.8234 20.1288C17.0636 19.331 15.9899 19.0041 15.0601 19.389C14.1304 19.7739 13.6035 20.7646 13.6305 21.8653C12.5509 22.0449 11.449 22.0449 10.3693 21.8653C10.3963 20.7636 9.86847 19.7739 8.93972 19.389C8.00996 19.0041 6.93624 19.331 6.17744 20.1288C5.28696 19.4926 4.50767 18.7136 3.87104 17.8234C4.66883 17.0636 4.99575 15.9899 4.61085 15.0602C4.22595 14.1304 3.23521 13.6026 2.1345 13.6296C1.95517 12.5506 1.95517 11.4494 2.1345 10.3704C3.23621 10.3964 4.22595 9.86857 4.61085 8.93982C4.99575 8.01008 4.66883 6.93637 3.87104 6.17757C4.50729 5.2871 5.28624 4.50782 6.17644 3.87119C6.93624 4.66898 8.00996 4.99589 8.93972 4.61099C9.86947 4.2261 10.3963 3.23536 10.3693 2.13466C11.449 1.95511 12.5509 1.95511 13.6305 2.13466C13.6035 3.23636 14.1314 4.2261 15.0601 4.61099C15.9899 4.99589 17.0636 4.66898 17.8224 3.87119C18.7129 4.50743 19.4922 5.28637 20.1288 6.17657C19.331 6.93637 19.0041 8.01008 19.389 8.93982C19.7739 9.86957 20.7646 10.3964 21.8653 10.3694C22.0449 11.4491 22.0449 12.5509 21.8653 13.6306ZM18.465 14.6777C18.0119 15.7721 18.2385 16.9257 18.8465 17.8412C18.5387 18.2024 18.2027 18.5386 17.8417 18.8465C16.9259 18.2386 15.7723 18.0119 14.6776 18.465C13.5824 18.9184 12.928 19.895 12.7107 20.9717C12.2376 21.0094 11.7622 21.0094 11.2892 20.9717C11.0716 19.8943 10.4165 18.9186 9.32256 18.4652C8.2281 18.0121 7.07412 18.2385 6.15864 18.8465C5.79741 18.5388 5.46126 18.2028 5.15338 17.8417C5.76122 16.9259 5.98796 15.7723 5.5348 14.6777C5.08155 13.5828 4.10526 12.9275 3.02823 12.7099C2.99058 12.2372 2.99059 11.7623 3.02826 11.2897C4.1054 11.0717 5.08124 10.4168 5.53466 9.32268C5.98774 8.22822 5.76134 7.07425 5.15337 6.15877C5.46109 5.79755 5.7971 5.4614 6.15818 5.15352C7.07397 5.76136 8.22758 5.9881 9.32221 5.53495C10.4174 5.08155 11.0718 4.10501 11.2892 3.0283C11.7623 2.99057 12.2376 2.99057 12.7107 3.0283C12.9282 4.10567 13.5833 5.08144 14.6773 5.5348C15.7717 5.98788 16.9257 5.76148 17.8412 5.15351C18.2024 5.46123 18.5386 5.79723 18.8465 6.15832C18.2386 7.0741 18.0119 8.2277 18.465 9.32233C18.9184 10.4176 19.895 11.0719 20.9717 11.2893C21.0094 11.7623 21.0094 12.2377 20.9717 12.7107C19.8943 12.9283 18.9184 13.5837 18.465 14.6777Z" fill="#2C2D2E"/>
</svg>
