<svg width="24" height="24" viewBox="0 0 24 24" fill="none" xmlns="http://www.w3.org/2000/svg">
<path d="M7.99998 6.5C7.99998 6.22386 7.77612 6 7.49998 6V6C7.22383 6 6.99998 6.22386 6.99998 6.5V16.7929L5.20708 15C5.01182 14.8047 4.69524 14.8047 4.49998 15V15C4.30471 15.1953 4.30471 15.5118 4.49998 15.7071L7.49998 18.7071L10.5 15.7071C10.6952 15.5118 10.6952 15.1953 10.5 15V15C10.3047 14.8047 9.98813 14.8047 9.79287 15L7.99998 16.7929V6.5Z" fill="#2C2D2E"/>
<path d="M19.5 9C19.6952 8.80474 19.6952 8.48816 19.5 8.29289L16.5 5.29289L13.5 8.29289C13.3047 8.48815 13.3047 8.80474 13.5 9V9C13.6952 9.19526 14.0118 9.19526 14.2071 9L16 7.20708V17.5C16 17.7761 16.2238 18 16.5 18V18C16.7761 18 17 17.7761 17 17.5V7.20713L18.7928 9C18.9881 9.19526 19.3047 9.19526 19.5 9V9Z" fill="#2C2D2E"/>
</svg>
