<svg width="24" height="24" viewBox="0 0 24 24" fill="none" xmlns="http://www.w3.org/2000/svg">
<path d="M13 4H11C10.4477 4 10 4.44772 10 5V19C10 19.5523 10.4477 20 11 20H13C13.5523 20 14 19.5523 14 19V5C14 4.44772 13.5523 4 13 4Z" fill="#2C2D2E"/>
<path d="M19 10H17C16.4477 10 16 10.4477 16 11V19C16 19.5523 16.4477 20 17 20H19C19.5523 20 20 19.5523 20 19V11C20 10.4477 19.5523 10 19 10Z" fill="#2C2D2E"/>
<path d="M5 13H7C7.55228 13 8 13.4477 8 14V19C8 19.5523 7.55228 20 7 20H5C4.44772 20 4 19.5523 4 19V14C4 13.4477 4.44772 13 5 13Z" fill="#2C2D2E"/>
</svg>
