<svg width="24" height="24" viewBox="0 0 24 24" fill="none" xmlns="http://www.w3.org/2000/svg">
<path d="M17 10.5H19C19.2761 10.5 19.5 10.7239 19.5 11V19C19.5 19.2761 19.2761 19.5 19 19.5H17C16.7239 19.5 16.5 19.2761 16.5 19V11C16.5 10.7239 16.7239 10.5 17 10.5ZM11 4.5H13C13.2761 4.5 13.5 4.72386 13.5 5V19C13.5 19.2761 13.2761 19.5 13 19.5H11C10.7239 19.5 10.5 19.2761 10.5 19V5C10.5 4.72386 10.7239 4.5 11 4.5ZM5 13.5H7C7.27614 13.5 7.5 13.7239 7.5 14V19C7.5 19.2761 7.27614 19.5 7 19.5H5C4.72386 19.5 4.5 19.2761 4.5 19V14C4.5 13.7239 4.72386 13.5 5 13.5Z" stroke="#2C2D2E"/>
</svg>
