<svg width="24" height="24" viewBox="0 0 24 24" fill="none" xmlns="http://www.w3.org/2000/svg">
<path d="M8.3254 4.62037C8.53506 4.80008 8.55934 5.11573 8.37963 5.3254L6.08711 8H18.5C18.7761 8 19 8.22386 19 8.5C19 8.77614 18.7761 9 18.5 9H6.08711L8.37963 11.6746C8.55934 11.8843 8.53506 12.1999 8.3254 12.3796C8.11573 12.5593 7.80008 12.5351 7.62037 12.3254L4.62037 8.8254C4.45988 8.63815 4.45988 8.36185 4.62037 8.17461L7.62037 4.67461C7.80008 4.46494 8.11573 4.44066 8.3254 4.62037Z" fill="#2C2D2E"/>
<path d="M17.9129 16L15.6204 18.6746C15.4407 18.8843 15.4649 19.1999 15.6746 19.3796C15.8843 19.5593 16.1999 19.5351 16.3796 19.3254L19.3796 15.8254C19.5401 15.6382 19.5401 15.3619 19.3796 15.1746L16.3796 11.6746C16.1999 11.4649 15.8843 11.4407 15.6746 11.6204C15.4649 11.8001 15.4407 12.1157 15.6204 12.3254L17.9129 15H5.5C5.22386 15 5 15.2239 5 15.5C5 15.7761 5.22386 16 5.5 16H17.9129Z" fill="#2C2D2E"/>
</svg>
