<svg width="24" height="24" viewBox="0 0 24 24" fill="none" xmlns="http://www.w3.org/2000/svg">
<path fill-rule="evenodd" clip-rule="evenodd" d="M12 12C14.2091 12 16 10.2091 16 8C16 5.79086 14.2091 4 12 4C9.79086 4 8 5.79086 8 8C8 10.2091 9.79086 12 12 12ZM12 11C13.6569 11 15 9.65685 15 8C15 6.34315 13.6569 5 12 5C10.3431 5 9 6.34315 9 8C9 9.65685 10.3431 11 12 11Z" fill="#2C2D2E"/>
<path d="M17 13H16V16H13V17H16V20H17V17H20V16H17V13Z" fill="#2C2D2E"/>
<path d="M4 17C4 16.0686 6.60269 14.2696 11 14.0272V15.0288C9.10287 15.1397 7.59287 15.5562 6.5388 16.0354C5.91854 16.3173 5.48336 16.6084 5.22114 16.8479C5.0828 16.9742 5.02325 17.0564 5 17.0925V18C5 18.5523 5.44772 19 6 19H11V20H6C4.89543 20 4 19.1046 4 18V17Z" fill="#2C2D2E"/>
</svg>
