<svg width="24" height="24" viewBox="0 0 24 24" fill="none" xmlns="http://www.w3.org/2000/svg">
<path fill-rule="evenodd" clip-rule="evenodd" d="M11 8.5C11 10.433 9.433 12 7.5 12C5.567 12 4 10.433 4 8.5C4 6.567 5.567 5 7.5 5C9.433 5 11 6.567 11 8.5ZM10 8.5C10 9.88071 8.88071 11 7.5 11C6.11929 11 5 9.88071 5 8.5C5 7.11929 6.11929 6 7.5 6C8.88071 6 10 7.11929 10 8.5Z" fill="#2C2D2E"/>
<path fill-rule="evenodd" clip-rule="evenodd" d="M20 8.5C20 10.433 18.433 12 16.5 12C14.567 12 13 10.433 13 8.5C13 6.567 14.567 5 16.5 5C18.433 5 20 6.567 20 8.5ZM19 8.5C19 9.88071 17.8807 11 16.5 11C15.1193 11 14 9.88071 14 8.5C14 7.11929 15.1193 6 16.5 6C17.8807 6 19 7.11929 19 8.5Z" fill="#2C2D2E"/>
<path fill-rule="evenodd" clip-rule="evenodd" d="M2 18V17C2 16 4 14 7.5 14C11 14 13 16 13 17V18C13 19.1046 12.1046 20 11 20H4C2.89543 20 2 19.1046 2 18ZM3 17.0123V18C3 18.5523 3.44772 19 4 19H11C11.5523 19 12 18.5523 12 18V17.0123C11.9997 17.0123 11.9988 17.011 11.9976 17.0069C11.9896 16.9815 11.9574 16.8782 11.8282 16.7032C11.6649 16.4819 11.3951 16.2153 11.0078 15.9571C10.2387 15.4443 9.05762 15 7.5 15C5.94238 15 4.76129 15.4443 3.9922 15.9571C3.60487 16.2153 3.33511 16.4819 3.17176 16.7032C3.04259 16.8782 3.01035 16.9815 3.00245 17.0069C3.00116 17.011 3.00031 17.0123 3 17.0123Z" fill="#2C2D2E"/>
<path d="M20 20H15V19H20C20.5523 19 21 18.5523 21 18V17C21 17 20.9999 17.0007 20.9996 16.9987C20.9969 16.9824 20.9772 16.8644 20.8433 16.663C20.7026 16.4514 20.4654 16.1952 20.1071 15.9461C19.3968 15.4523 18.2272 15 16.5 15C15.9431 15 15.4442 15.047 15 15.1273V14.1131C15.4579 14.0406 15.9575 14 16.5 14C20.3077 14 22 16 22 17V18C22 19.1046 21.1046 20 20 20Z" fill="#2C2D2E"/>
</svg>
