<svg width="24" height="24" viewBox="0 0 24 24" fill="none" xmlns="http://www.w3.org/2000/svg">
<path fill-rule="evenodd" clip-rule="evenodd" d="M16 8C16 10.2091 14.2091 12 12 12C9.79086 12 8 10.2091 8 8C8 5.79086 9.79086 4 12 4C14.2091 4 16 5.79086 16 8ZM15 8C15 9.65685 13.6569 11 12 11C10.3431 11 9 9.65685 9 8C9 6.34315 10.3431 5 12 5C13.6569 5 15 6.34315 15 8Z" fill="#2C2D2E"/>
<path fill-rule="evenodd" clip-rule="evenodd" d="M4 17V18C4 19.1046 4.89543 20 6 20H18C19.1046 20 20 19.1046 20 18V17C20 16 17 14 12 14C7 14 4 16 4 17ZM5 18V17.0925C5.02325 17.0564 5.0828 16.9742 5.22114 16.8479C5.48336 16.6084 5.91854 16.3173 6.5388 16.0354C7.77193 15.4749 9.62905 15 12 15C14.371 15 16.2281 15.4749 17.4612 16.0354C18.0815 16.3173 18.5166 16.6084 18.7789 16.8479C18.9172 16.9742 18.9767 17.0564 19 17.0925V18C19 18.5523 18.5523 19 18 19H6C5.44772 19 5 18.5523 5 18Z" fill="#2C2D2E"/>
</svg>
